<mxfile host="app.diagrams.net" modified="2023-07-02T12:28:35.687Z" agent="Mozilla/5.0 (Macintosh; Intel Mac OS X 10_15_7) AppleWebKit/537.36 (KHTML, like Gecko) Chrome/114.0.0.0 Safari/537.36" version="21.5.2" etag="2mr00FZLpNhSQD5l6JIm" type="github">
  <diagram name="Page-1" id="z2tuwF2gitq8CDAfEfOR">
    <mxGraphModel>
      <root>
        <mxCell id="0" />
        <mxCell id="1" parent="0" />
      </root>
    </mxGraphModel>
  </diagram>
</mxfile>
